<svg width="683" height="683" xmlns="http://www.w3.org/2000/svg" xmlns:xlink="http://www.w3.org/1999/xlink" xml:space="preserve" overflow="hidden"><g transform="translate(-298 -67)"><path d="M76.3039 681.533C39.0857 675.263 7.07012 642.58 1.33398 604.829 0.400195 598.559 0 513.184 0.266797 335.497L0.666992 75.3701 4.40215 64.6982C14.9406 34.9504 34.9504 14.9406 64.6982 4.40215L75.3701 0.666992 341.5 0.666992 607.63 0.666992 618.302 4.40215C649.117 15.3408 670.327 37.485 679.932 68.7002 682.2 76.3039 682.333 88.4432 682.333 342.167L682.333 607.63 678.598 618.302C668.059 648.05 648.05 668.059 618.302 678.598L607.63 682.333 345.502 682.466C197.563 682.6 80.3059 682.2 76.3039 681.533ZM380.853 542.265C443.016 530.659 497.443 491.973 528.258 437.547 570.145 363.377 561.607 269.331 507.047 204.5 484.103 177.153 455.689 156.343 423.407 143.137 407.399 136.6 401.396 136.066 396.994 140.469L393.525 143.937 393.525 180.488C393.525 221.175 392.858 225.577 384.988 237.182L380.452 243.852 387.389 244.786C426.208 249.989 452.488 265.863 465.427 292.276 472.097 305.883 474.498 315.087 476.232 333.096 477.7 349.104 476.232 364.578 471.964 375.917 469.296 383.387 459.157 400.462 456.489 402.063 455.556 402.596 455.822 405.531 457.156 410.6 461.025 425.274 457.023 457.957 451.154 459.157 442.216 461.025 421.272 453.955 404.331 443.55L394.859 437.68 383.12 440.348C360.309 445.684 318.289 445.151 296.011 439.414L288.407 437.547 278.136 443.817C260.394 454.488 236.649 461.959 230.646 458.757 229.445 458.224 227.444 453.955 226.244 449.553 222.775 437.147 222.242 425.007 224.643 413.535 226.511 404.731 226.511 403.397 224.776 400.862 208.769 379.385 204.5 364.711 205.834 337.498 207.435 308.15 215.172 288.674 231.98 272.133 239.45 264.663 244.786 260.661 252.39 257.059 263.329 251.723 282.138 246.254 294.144 244.786 298.146 244.253 301.48 243.586 301.48 243.319 301.48 243.052 299.479 240.251 297.078 237.049 294.544 233.847 291.876 228.245 290.942 224.643 290.008 221.041 288.941 217.439 288.808 216.506 288.007 213.838 274.801 210.77 263.996 210.77 254.924 210.77 252.657 211.303 245.186 215.172 238.116 218.773 235.315 221.308 227.444 231.846 216.906 245.72 213.438 248.655 203.966 252.256 196.363 255.191 189.559 255.458 186.224 253.057 182.889 250.656 184.49 247.854 193.561 241.318 203.032 234.514 209.302 226.511 214.905 213.838 225.177 191.293 240.918 181.288 266.13 181.288 272.8 181.288 280.537 181.689 283.205 182.089L288.141 183.023 288.141 163.28C288.141 144.871 288.007 143.403 285.206 140.469 279.87 134.866 269.598 137.267 243.986 150.073 164.213 190.093 118.591 275.334 130.063 363.111 141.803 453.288 213.171 527.057 302.814 542.131 309.751 543.332 316.955 544.532 318.822 544.799 326.559 546.133 369.38 544.399 380.853 542.265Z" fill="#FFFFFF" transform="matrix(1 0 0 -1 298 750)"/></g></svg>