<svg width="683" height="683" xmlns="http://www.w3.org/2000/svg" xmlns:xlink="http://www.w3.org/1999/xlink" xml:space="preserve" overflow="hidden"><g transform="translate(-394 -7)"><path d="M76.3039 681.533C39.0857 675.263 7.07012 642.58 1.33398 604.829 0.400195 598.559 0 513.184 0.266797 335.497L0.666992 75.3701 4.40215 64.6982C14.9406 34.9504 34.9504 14.9406 64.6982 4.40215L75.3701 0.666992 341.5 0.666992 607.63 0.666992 618.302 4.40215C649.117 15.3408 670.327 37.485 679.932 68.7002 682.2 76.3039 682.333 88.4432 682.333 342.167L682.333 607.63 678.598 618.302C668.059 648.05 648.05 668.059 618.302 678.598L607.63 682.333 345.502 682.466C197.563 682.6 80.3059 682.2 76.3039 681.533ZM202.099 552.937C219.04 548.401 232.78 536.929 240.517 520.654 245.853 509.182 247.054 493.041 243.452 480.768 236.249 455.956 213.704 438.881 188.492 438.881 165.281 438.881 144.871 451.554 135.399 471.83 114.456 515.985 154.876 565.209 202.099 552.937ZM463.826 417.404C510.382 412.201 538.263 385.522 548.134 336.698 552.67 314.287 553.604 294.144 553.604 214.238L553.604 137.134 549.068 132.598 544.532 128.062 507.981 128.062C474.098 128.062 471.297 128.196 467.295 130.73 464.894 132.198 462.626 134.732 462.226 136.333 461.959 138.067 461.425 174.485 461.158 217.439 460.758 286.273 460.491 296.411 458.49 303.481 454.889 316.021 449.953 324.959 443.416 330.695 435.413 337.765 427.675 340.166 413.535 340.166 403.263 340.166 400.996 339.632 393.792 336.164 384.054 331.228 377.117 323.891 372.048 312.953 363.644 294.811 363.778 296.011 362.977 211.837L362.177 134.866 359.109 131.798C356.174 128.729 355.507 128.729 320.156 128.329 280.67 127.929 278.002 128.329 274.934 135.666 273.867 138.468 273.467 174.218 273.734 273.2L274.134 407.132 277.869 410.334 281.604 413.535 318.289 413.535C340.833 413.535 356.04 413.002 357.508 412.201 361.91 409.8 363.377 405.398 364.178 392.458L364.845 380.052 370.047 386.722C388.056 410.467 423.273 421.939 463.826 417.404ZM228.111 409.8C230.646 407.265 232.113 404.064 232.78 400.062 233.18 396.86 233.447 336.564 233.18 266.13 232.78 145.404 232.647 137.801 230.379 134.599 226.11 128.329 223.176 127.929 185.691 128.329L150.74 128.729 147.138 132.465 143.403 136.066 143.003 268.531C142.87 341.233 143.003 402.33 143.403 403.93 143.804 405.665 145.805 408.599 147.672 410.334L151.14 413.535 187.692 413.535 224.376 413.535 228.111 409.8Z" fill="#FFFFFF" transform="matrix(1 0 0 -1 394 690)"/></g></svg>